<mxfile host="Electron" agent="Mozilla/5.0 (X11; Linux x86_64) AppleWebKit/537.36 (KHTML, like Gecko) draw.io/24.7.8 Chrome/128.0.6613.36 Electron/32.0.1 Safari/537.36" version="24.7.8">
  <diagram name="Page-1" id="qynnJ9mF20FTSLq9NsQx">
    <mxGraphModel dx="1394" dy="830" grid="1" gridSize="10" guides="1" tooltips="1" connect="1" arrows="1" fold="1" page="1" pageScale="1" pageWidth="850" pageHeight="1100" math="1" shadow="0">
      <root>
        <mxCell id="0" />
        <mxCell id="1" parent="0" />
        <mxCell id="T0Dxl9aZNpjFLh2CjU2h-1" value="" style="pointerEvents=1;verticalLabelPosition=bottom;shadow=0;dashed=0;align=center;html=1;verticalAlign=top;shape=mxgraph.electrical.resistors.resistor_1;direction=south;strokeWidth=2;" vertex="1" parent="1">
          <mxGeometry x="270" y="200" width="20" height="100" as="geometry" />
        </mxCell>
        <mxCell id="T0Dxl9aZNpjFLh2CjU2h-2" value="" style="pointerEvents=1;verticalLabelPosition=bottom;shadow=0;dashed=0;align=center;html=1;verticalAlign=top;shape=mxgraph.electrical.resistors.resistor_1;direction=south;strokeWidth=2;" vertex="1" parent="1">
          <mxGeometry x="270" y="300" width="20" height="100" as="geometry" />
        </mxCell>
        <mxCell id="T0Dxl9aZNpjFLh2CjU2h-3" value="" style="pointerEvents=1;verticalLabelPosition=bottom;shadow=0;dashed=0;align=center;html=1;verticalAlign=top;shape=mxgraph.electrical.resistors.resistor_1;direction=south;strokeWidth=2;" vertex="1" parent="1">
          <mxGeometry x="270" y="400" width="20" height="100" as="geometry" />
        </mxCell>
        <mxCell id="T0Dxl9aZNpjFLh2CjU2h-4" value="" style="pointerEvents=1;verticalLabelPosition=bottom;shadow=0;dashed=0;align=center;html=1;verticalAlign=top;shape=mxgraph.electrical.resistors.resistor_1;direction=south;strokeWidth=2;" vertex="1" parent="1">
          <mxGeometry x="270" y="500" width="20" height="100" as="geometry" />
        </mxCell>
        <mxCell id="T0Dxl9aZNpjFLh2CjU2h-5" value="" style="pointerEvents=1;verticalLabelPosition=bottom;shadow=0;dashed=0;align=center;html=1;verticalAlign=top;shape=mxgraph.electrical.resistors.resistor_1;direction=west;strokeWidth=2;" vertex="1" parent="1">
          <mxGeometry x="140" y="150" width="100" height="20" as="geometry" />
        </mxCell>
        <mxCell id="T0Dxl9aZNpjFLh2CjU2h-6" value="" style="pointerEvents=1;verticalLabelPosition=bottom;shadow=0;dashed=0;align=center;html=1;verticalAlign=top;shape=mxgraph.electrical.resistors.resistor_1;direction=west;strokeWidth=2;" vertex="1" parent="1">
          <mxGeometry x="140" y="290" width="100" height="20" as="geometry" />
        </mxCell>
        <mxCell id="T0Dxl9aZNpjFLh2CjU2h-7" value="" style="pointerEvents=1;verticalLabelPosition=bottom;shadow=0;dashed=0;align=center;html=1;verticalAlign=top;shape=mxgraph.electrical.resistors.resistor_1;direction=west;strokeWidth=2;" vertex="1" parent="1">
          <mxGeometry x="140" y="390" width="100" height="20" as="geometry" />
        </mxCell>
        <mxCell id="T0Dxl9aZNpjFLh2CjU2h-8" value="" style="pointerEvents=1;verticalLabelPosition=bottom;shadow=0;dashed=0;align=center;html=1;verticalAlign=top;shape=mxgraph.electrical.resistors.resistor_1;direction=west;strokeWidth=2;" vertex="1" parent="1">
          <mxGeometry x="140" y="490" width="100" height="20" as="geometry" />
        </mxCell>
        <mxCell id="T0Dxl9aZNpjFLh2CjU2h-9" value="" style="pointerEvents=1;verticalLabelPosition=bottom;shadow=0;dashed=0;align=center;html=1;verticalAlign=top;shape=mxgraph.electrical.resistors.resistor_1;direction=west;strokeWidth=2;" vertex="1" parent="1">
          <mxGeometry x="140" y="90" width="100" height="20" as="geometry" />
        </mxCell>
        <mxCell id="T0Dxl9aZNpjFLh2CjU2h-10" value="" style="pointerEvents=1;verticalLabelPosition=bottom;shadow=0;dashed=0;align=center;html=1;verticalAlign=top;shape=mxgraph.electrical.resistors.resistor_1;direction=west;strokeWidth=2;" vertex="1" parent="1">
          <mxGeometry x="140" y="30" width="100" height="20" as="geometry" />
        </mxCell>
        <mxCell id="T0Dxl9aZNpjFLh2CjU2h-11" value="" style="endArrow=none;html=1;rounded=0;strokeWidth=2;" edge="1" parent="1">
          <mxGeometry width="50" height="50" relative="1" as="geometry">
            <mxPoint x="280" y="200" as="sourcePoint" />
            <mxPoint x="280" y="40" as="targetPoint" />
          </mxGeometry>
        </mxCell>
        <mxCell id="T0Dxl9aZNpjFLh2CjU2h-12" value="" style="endArrow=none;html=1;rounded=0;strokeWidth=2;" edge="1" parent="1">
          <mxGeometry width="50" height="50" relative="1" as="geometry">
            <mxPoint x="240" y="40" as="sourcePoint" />
            <mxPoint x="280" y="40" as="targetPoint" />
          </mxGeometry>
        </mxCell>
        <mxCell id="T0Dxl9aZNpjFLh2CjU2h-13" value="" style="endArrow=none;html=1;rounded=0;strokeWidth=2;" edge="1" parent="1" target="T0Dxl9aZNpjFLh2CjU2h-22">
          <mxGeometry width="50" height="50" relative="1" as="geometry">
            <mxPoint x="240" y="99.97" as="sourcePoint" />
            <mxPoint x="280" y="99.97" as="targetPoint" />
          </mxGeometry>
        </mxCell>
        <mxCell id="T0Dxl9aZNpjFLh2CjU2h-14" value="" style="endArrow=none;html=1;rounded=0;strokeWidth=2;" edge="1" parent="1" target="T0Dxl9aZNpjFLh2CjU2h-21">
          <mxGeometry width="50" height="50" relative="1" as="geometry">
            <mxPoint x="240" y="159.96999999999997" as="sourcePoint" />
            <mxPoint x="280" y="159.96999999999997" as="targetPoint" />
          </mxGeometry>
        </mxCell>
        <mxCell id="T0Dxl9aZNpjFLh2CjU2h-15" value="" style="endArrow=none;html=1;rounded=0;entryX=0;entryY=0.5;entryDx=0;entryDy=0;entryPerimeter=0;strokeWidth=2;" edge="1" parent="1" target="T0Dxl9aZNpjFLh2CjU2h-2">
          <mxGeometry width="50" height="50" relative="1" as="geometry">
            <mxPoint x="240" y="300" as="sourcePoint" />
            <mxPoint x="290" y="250" as="targetPoint" />
          </mxGeometry>
        </mxCell>
        <mxCell id="T0Dxl9aZNpjFLh2CjU2h-16" value="" style="endArrow=none;html=1;rounded=0;entryX=0;entryY=0.5;entryDx=0;entryDy=0;entryPerimeter=0;strokeWidth=2;" edge="1" parent="1" target="T0Dxl9aZNpjFLh2CjU2h-19">
          <mxGeometry width="50" height="50" relative="1" as="geometry">
            <mxPoint x="240" y="400" as="sourcePoint" />
            <mxPoint x="280" y="400" as="targetPoint" />
          </mxGeometry>
        </mxCell>
        <mxCell id="T0Dxl9aZNpjFLh2CjU2h-17" value="" style="endArrow=none;html=1;rounded=0;entryX=0;entryY=0.5;entryDx=0;entryDy=0;entryPerimeter=0;strokeWidth=2;" edge="1" parent="1" target="T0Dxl9aZNpjFLh2CjU2h-18">
          <mxGeometry width="50" height="50" relative="1" as="geometry">
            <mxPoint x="240" y="500" as="sourcePoint" />
            <mxPoint x="280" y="500" as="targetPoint" />
          </mxGeometry>
        </mxCell>
        <mxCell id="T0Dxl9aZNpjFLh2CjU2h-18" value="" style="shape=waypoint;sketch=0;fillStyle=solid;size=6;pointerEvents=1;points=[];fillColor=none;resizable=0;rotatable=0;perimeter=centerPerimeter;snapToPoint=1;strokeWidth=2;" vertex="1" parent="1">
          <mxGeometry x="270" y="490" width="20" height="20" as="geometry" />
        </mxCell>
        <mxCell id="T0Dxl9aZNpjFLh2CjU2h-19" value="" style="shape=waypoint;sketch=0;fillStyle=solid;size=6;pointerEvents=1;points=[];fillColor=none;resizable=0;rotatable=0;perimeter=centerPerimeter;snapToPoint=1;strokeWidth=2;" vertex="1" parent="1">
          <mxGeometry x="270" y="390" width="20" height="20" as="geometry" />
        </mxCell>
        <mxCell id="T0Dxl9aZNpjFLh2CjU2h-20" value="" style="shape=waypoint;sketch=0;fillStyle=solid;size=6;pointerEvents=1;points=[];fillColor=none;resizable=0;rotatable=0;perimeter=centerPerimeter;snapToPoint=1;strokeWidth=2;" vertex="1" parent="1">
          <mxGeometry x="270" y="290" width="20" height="20" as="geometry" />
        </mxCell>
        <mxCell id="T0Dxl9aZNpjFLh2CjU2h-21" value="" style="shape=waypoint;sketch=0;fillStyle=solid;size=6;pointerEvents=1;points=[];fillColor=none;resizable=0;rotatable=0;perimeter=centerPerimeter;snapToPoint=1;strokeWidth=2;" vertex="1" parent="1">
          <mxGeometry x="270" y="149.97000000000003" width="20" height="20" as="geometry" />
        </mxCell>
        <mxCell id="T0Dxl9aZNpjFLh2CjU2h-22" value="" style="shape=waypoint;sketch=0;fillStyle=solid;size=6;pointerEvents=1;points=[];fillColor=none;resizable=0;rotatable=0;perimeter=centerPerimeter;snapToPoint=1;strokeWidth=2;" vertex="1" parent="1">
          <mxGeometry x="270" y="89.97000000000003" width="20" height="20" as="geometry" />
        </mxCell>
        <mxCell id="T0Dxl9aZNpjFLh2CjU2h-24" value="$$2R$$" style="text;html=1;align=center;verticalAlign=middle;whiteSpace=wrap;rounded=0;strokeWidth=2;" vertex="1" parent="1">
          <mxGeometry x="280" y="535" width="60" height="30" as="geometry" />
        </mxCell>
        <mxCell id="T0Dxl9aZNpjFLh2CjU2h-25" value="$$R$$" style="text;html=1;align=center;verticalAlign=middle;whiteSpace=wrap;rounded=0;strokeWidth=2;" vertex="1" parent="1">
          <mxGeometry x="280" y="435" width="60" height="30" as="geometry" />
        </mxCell>
        <mxCell id="T0Dxl9aZNpjFLh2CjU2h-26" value="$$R$$" style="text;html=1;align=center;verticalAlign=middle;whiteSpace=wrap;rounded=0;strokeWidth=2;" vertex="1" parent="1">
          <mxGeometry x="280" y="335" width="60" height="30" as="geometry" />
        </mxCell>
        <mxCell id="T0Dxl9aZNpjFLh2CjU2h-27" value="$$R$$" style="text;html=1;align=center;verticalAlign=middle;whiteSpace=wrap;rounded=0;strokeWidth=2;" vertex="1" parent="1">
          <mxGeometry x="280" y="235" width="60" height="30" as="geometry" />
        </mxCell>
        <mxCell id="T0Dxl9aZNpjFLh2CjU2h-28" value="$$2R$$" style="text;html=1;align=center;verticalAlign=middle;whiteSpace=wrap;rounded=0;strokeWidth=2;" vertex="1" parent="1">
          <mxGeometry x="160" y="460" width="60" height="30" as="geometry" />
        </mxCell>
        <mxCell id="T0Dxl9aZNpjFLh2CjU2h-29" value="$$2R$$" style="text;html=1;align=center;verticalAlign=middle;whiteSpace=wrap;rounded=0;strokeWidth=2;" vertex="1" parent="1">
          <mxGeometry x="160" y="360" width="60" height="30" as="geometry" />
        </mxCell>
        <mxCell id="T0Dxl9aZNpjFLh2CjU2h-30" value="$$2R$$" style="text;html=1;align=center;verticalAlign=middle;whiteSpace=wrap;rounded=0;strokeWidth=2;" vertex="1" parent="1">
          <mxGeometry x="160" y="260" width="60" height="30" as="geometry" />
        </mxCell>
        <mxCell id="T0Dxl9aZNpjFLh2CjU2h-31" value="$$B_0$$" style="text;html=1;align=center;verticalAlign=middle;whiteSpace=wrap;rounded=0;" vertex="1" parent="1">
          <mxGeometry x="100" y="470" width="60" height="30" as="geometry" />
        </mxCell>
        <mxCell id="T0Dxl9aZNpjFLh2CjU2h-32" value="$$B_1$$" style="text;html=1;align=center;verticalAlign=middle;whiteSpace=wrap;rounded=0;" vertex="1" parent="1">
          <mxGeometry x="100" y="370" width="60" height="30" as="geometry" />
        </mxCell>
        <mxCell id="T0Dxl9aZNpjFLh2CjU2h-34" value="$$B_{N_b-1}$$" style="text;html=1;align=center;verticalAlign=middle;whiteSpace=wrap;rounded=0;" vertex="1" parent="1">
          <mxGeometry x="100" y="260" width="60" height="30" as="geometry" />
        </mxCell>
        <mxCell id="T0Dxl9aZNpjFLh2CjU2h-35" value="$$T_0$$" style="text;html=1;align=center;verticalAlign=middle;whiteSpace=wrap;rounded=0;" vertex="1" parent="1">
          <mxGeometry x="92" y="130" width="60" height="30" as="geometry" />
        </mxCell>
        <mxCell id="T0Dxl9aZNpjFLh2CjU2h-36" value="$$T_1$$" style="text;html=1;align=center;verticalAlign=middle;whiteSpace=wrap;rounded=0;" vertex="1" parent="1">
          <mxGeometry x="93" y="85" width="60" height="30" as="geometry" />
        </mxCell>
        <mxCell id="T0Dxl9aZNpjFLh2CjU2h-37" value="$$T_{2^{N_t}-2}$$" style="text;html=1;align=center;verticalAlign=middle;whiteSpace=wrap;rounded=0;" vertex="1" parent="1">
          <mxGeometry x="100" y="30" width="60" height="30" as="geometry" />
        </mxCell>
        <mxCell id="T0Dxl9aZNpjFLh2CjU2h-38" value="" style="pointerEvents=1;verticalLabelPosition=bottom;shadow=0;dashed=0;align=center;html=1;verticalAlign=top;shape=mxgraph.electrical.signal_sources.signal_ground;strokeWidth=2;" vertex="1" parent="1">
          <mxGeometry x="270" y="600" width="20" height="20" as="geometry" />
        </mxCell>
        <mxCell id="T0Dxl9aZNpjFLh2CjU2h-39" value="" style="pointerEvents=1;verticalLabelPosition=bottom;shadow=0;dashed=0;align=center;html=1;verticalAlign=top;shape=mxgraph.electrical.resistors.resistor_1;direction=south;strokeWidth=2;" vertex="1" parent="1">
          <mxGeometry x="669" y="200" width="20" height="110" as="geometry" />
        </mxCell>
        <mxCell id="T0Dxl9aZNpjFLh2CjU2h-43" value="" style="pointerEvents=1;verticalLabelPosition=bottom;shadow=0;dashed=0;align=center;html=1;verticalAlign=top;shape=mxgraph.electrical.resistors.resistor_1;direction=west;strokeWidth=2;" vertex="1" parent="1">
          <mxGeometry x="539" y="150" width="100" height="20" as="geometry" />
        </mxCell>
        <mxCell id="T0Dxl9aZNpjFLh2CjU2h-47" value="" style="pointerEvents=1;verticalLabelPosition=bottom;shadow=0;dashed=0;align=center;html=1;verticalAlign=top;shape=mxgraph.electrical.resistors.resistor_1;direction=west;strokeWidth=2;" vertex="1" parent="1">
          <mxGeometry x="539" y="90" width="100" height="20" as="geometry" />
        </mxCell>
        <mxCell id="T0Dxl9aZNpjFLh2CjU2h-48" value="" style="pointerEvents=1;verticalLabelPosition=bottom;shadow=0;dashed=0;align=center;html=1;verticalAlign=top;shape=mxgraph.electrical.resistors.resistor_1;direction=west;strokeWidth=2;" vertex="1" parent="1">
          <mxGeometry x="539" y="30" width="100" height="20" as="geometry" />
        </mxCell>
        <mxCell id="T0Dxl9aZNpjFLh2CjU2h-49" value="" style="endArrow=none;html=1;rounded=0;strokeWidth=2;" edge="1" parent="1">
          <mxGeometry width="50" height="50" relative="1" as="geometry">
            <mxPoint x="679" y="200" as="sourcePoint" />
            <mxPoint x="679" y="40" as="targetPoint" />
          </mxGeometry>
        </mxCell>
        <mxCell id="T0Dxl9aZNpjFLh2CjU2h-50" value="" style="endArrow=none;html=1;rounded=0;strokeWidth=2;" edge="1" parent="1">
          <mxGeometry width="50" height="50" relative="1" as="geometry">
            <mxPoint x="639" y="40" as="sourcePoint" />
            <mxPoint x="679" y="40" as="targetPoint" />
          </mxGeometry>
        </mxCell>
        <mxCell id="T0Dxl9aZNpjFLh2CjU2h-51" value="" style="endArrow=none;html=1;rounded=0;strokeWidth=2;" edge="1" parent="1" target="T0Dxl9aZNpjFLh2CjU2h-60">
          <mxGeometry width="50" height="50" relative="1" as="geometry">
            <mxPoint x="639" y="99.97" as="sourcePoint" />
            <mxPoint x="679" y="99.97" as="targetPoint" />
          </mxGeometry>
        </mxCell>
        <mxCell id="T0Dxl9aZNpjFLh2CjU2h-52" value="" style="endArrow=none;html=1;rounded=0;strokeWidth=2;" edge="1" parent="1" target="T0Dxl9aZNpjFLh2CjU2h-59">
          <mxGeometry width="50" height="50" relative="1" as="geometry">
            <mxPoint x="639" y="159.96999999999997" as="sourcePoint" />
            <mxPoint x="679" y="159.96999999999997" as="targetPoint" />
          </mxGeometry>
        </mxCell>
        <mxCell id="T0Dxl9aZNpjFLh2CjU2h-59" value="" style="shape=waypoint;sketch=0;fillStyle=solid;size=6;pointerEvents=1;points=[];fillColor=none;resizable=0;rotatable=0;perimeter=centerPerimeter;snapToPoint=1;strokeWidth=2;" vertex="1" parent="1">
          <mxGeometry x="669" y="149.97000000000003" width="20" height="20" as="geometry" />
        </mxCell>
        <mxCell id="T0Dxl9aZNpjFLh2CjU2h-60" value="" style="shape=waypoint;sketch=0;fillStyle=solid;size=6;pointerEvents=1;points=[];fillColor=none;resizable=0;rotatable=0;perimeter=centerPerimeter;snapToPoint=1;strokeWidth=2;" vertex="1" parent="1">
          <mxGeometry x="669" y="89.97000000000003" width="20" height="20" as="geometry" />
        </mxCell>
        <mxCell id="T0Dxl9aZNpjFLh2CjU2h-64" value="$$2R$$" style="text;html=1;align=center;verticalAlign=middle;whiteSpace=wrap;rounded=0;strokeWidth=2;" vertex="1" parent="1">
          <mxGeometry x="679" y="235" width="60" height="30" as="geometry" />
        </mxCell>
        <mxCell id="T0Dxl9aZNpjFLh2CjU2h-71" value="$$T_0$$" style="text;html=1;align=center;verticalAlign=middle;whiteSpace=wrap;rounded=0;strokeWidth=2;" vertex="1" parent="1">
          <mxGeometry x="491" y="130" width="60" height="30" as="geometry" />
        </mxCell>
        <mxCell id="T0Dxl9aZNpjFLh2CjU2h-72" value="$$T_1$$" style="text;html=1;align=center;verticalAlign=middle;whiteSpace=wrap;rounded=0;strokeWidth=2;" vertex="1" parent="1">
          <mxGeometry x="492" y="85" width="60" height="30" as="geometry" />
        </mxCell>
        <mxCell id="T0Dxl9aZNpjFLh2CjU2h-74" value="" style="pointerEvents=1;verticalLabelPosition=bottom;shadow=0;dashed=0;align=center;html=1;verticalAlign=top;shape=mxgraph.electrical.signal_sources.signal_ground;strokeWidth=2;" vertex="1" parent="1">
          <mxGeometry x="669" y="390" width="20" height="20" as="geometry" />
        </mxCell>
        <mxCell id="T0Dxl9aZNpjFLh2CjU2h-75" value="" style="pointerEvents=1;verticalLabelPosition=bottom;shadow=0;dashed=0;align=center;html=1;verticalAlign=top;shape=mxgraph.electrical.signal_sources.dc_source_1;strokeWidth=2;" vertex="1" parent="1">
          <mxGeometry x="639" y="300" width="70" height="75" as="geometry" />
        </mxCell>
        <mxCell id="T0Dxl9aZNpjFLh2CjU2h-79" value="" style="endArrow=none;html=1;rounded=0;exitX=0.5;exitY=0;exitDx=0;exitDy=0;exitPerimeter=0;strokeWidth=2;" edge="1" parent="1" source="T0Dxl9aZNpjFLh2CjU2h-74">
          <mxGeometry width="50" height="50" relative="1" as="geometry">
            <mxPoint x="678.84" y="379.9" as="sourcePoint" />
            <mxPoint x="678.87" y="370" as="targetPoint" />
          </mxGeometry>
        </mxCell>
        <mxCell id="T0Dxl9aZNpjFLh2CjU2h-80" value="&lt;font style=&quot;font-size: 16px;&quot;&gt;$$V_B$$&lt;/font&gt;" style="text;html=1;align=center;verticalAlign=middle;whiteSpace=wrap;rounded=0;strokeWidth=2;" vertex="1" parent="1">
          <mxGeometry x="699" y="330" width="60" height="30" as="geometry" />
        </mxCell>
        <mxCell id="T0Dxl9aZNpjFLh2CjU2h-81" value="&lt;font style=&quot;font-size: 16px;&quot;&gt;$$V_o$$&lt;/font&gt;" style="text;html=1;align=center;verticalAlign=middle;whiteSpace=wrap;rounded=0;strokeWidth=2;" vertex="1" parent="1">
          <mxGeometry x="280" y="169.97" width="60" height="30" as="geometry" />
        </mxCell>
        <mxCell id="T0Dxl9aZNpjFLh2CjU2h-82" value="&lt;font style=&quot;font-size: 16px;&quot;&gt;$$V_o$$&lt;/font&gt;" style="text;html=1;align=center;verticalAlign=middle;whiteSpace=wrap;rounded=0;strokeWidth=2;" vertex="1" parent="1">
          <mxGeometry x="679" y="169.97" width="60" height="30" as="geometry" />
        </mxCell>
        <mxCell id="T0Dxl9aZNpjFLh2CjU2h-83" value="" style="shape=flexArrow;endArrow=classic;html=1;rounded=0;" edge="1" parent="1">
          <mxGeometry width="50" height="50" relative="1" as="geometry">
            <mxPoint x="368" y="277.36" as="sourcePoint" />
            <mxPoint x="520" y="277.07" as="targetPoint" />
          </mxGeometry>
        </mxCell>
        <mxCell id="T0Dxl9aZNpjFLh2CjU2h-84" value="&lt;font style=&quot;font-size: 20px;&quot;&gt;...&lt;/font&gt;" style="text;html=1;align=center;verticalAlign=middle;whiteSpace=wrap;rounded=0;" vertex="1" parent="1">
          <mxGeometry x="160" y="322.5" width="60" height="30" as="geometry" />
        </mxCell>
        <mxCell id="T0Dxl9aZNpjFLh2CjU2h-85" value="&lt;font style=&quot;font-size: 20px;&quot;&gt;...&lt;/font&gt;" style="text;html=1;align=center;verticalAlign=middle;whiteSpace=wrap;rounded=0;" vertex="1" parent="1">
          <mxGeometry x="160" y="50" width="60" height="30" as="geometry" />
        </mxCell>
        <mxCell id="T0Dxl9aZNpjFLh2CjU2h-87" value="&lt;font style=&quot;font-size: 10px;&quot;&gt;&lt;i style=&quot;&quot;&gt;&lt;h3 class=&quot;LC20lb MBeuO DKV0Md&quot; style=&quot;margin: 18px 0px 0px; padding: 5px 0px 0px; line-height: 26px; display: inline-block;&quot;&gt;Thevenin Equivalent Circuit&lt;/h3&gt;&amp;nbsp;&lt;/i&gt;&lt;/font&gt;" style="text;html=1;align=center;verticalAlign=middle;whiteSpace=wrap;rounded=0;" vertex="1" parent="1">
          <mxGeometry x="360" y="222.36" width="160" height="30" as="geometry" />
        </mxCell>
        <mxCell id="T0Dxl9aZNpjFLh2CjU2h-88" value="$$T_{2^{N_t}-2}$$" style="text;html=1;align=center;verticalAlign=middle;whiteSpace=wrap;rounded=0;" vertex="1" parent="1">
          <mxGeometry x="491" y="30" width="60" height="30" as="geometry" />
        </mxCell>
        <mxCell id="T0Dxl9aZNpjFLh2CjU2h-89" value="$$2R$$" style="text;html=1;align=center;verticalAlign=middle;whiteSpace=wrap;rounded=0;strokeWidth=2;" vertex="1" parent="1">
          <mxGeometry x="160" y="120" width="60" height="30" as="geometry" />
        </mxCell>
        <mxCell id="T0Dxl9aZNpjFLh2CjU2h-90" value="$$2R$$" style="text;html=1;align=center;verticalAlign=middle;whiteSpace=wrap;rounded=0;strokeWidth=2;" vertex="1" parent="1">
          <mxGeometry x="160" y="68" width="60" height="30" as="geometry" />
        </mxCell>
        <mxCell id="T0Dxl9aZNpjFLh2CjU2h-91" value="$$2R$$" style="text;html=1;align=center;verticalAlign=middle;whiteSpace=wrap;rounded=0;strokeWidth=2;" vertex="1" parent="1">
          <mxGeometry x="160" y="7" width="60" height="30" as="geometry" />
        </mxCell>
        <mxCell id="T0Dxl9aZNpjFLh2CjU2h-92" value="&lt;font style=&quot;font-size: 20px;&quot;&gt;...&lt;/font&gt;" style="text;html=1;align=center;verticalAlign=middle;whiteSpace=wrap;rounded=0;" vertex="1" parent="1">
          <mxGeometry x="559" y="50" width="60" height="30" as="geometry" />
        </mxCell>
        <mxCell id="T0Dxl9aZNpjFLh2CjU2h-93" value="$$2R$$" style="text;html=1;align=center;verticalAlign=middle;whiteSpace=wrap;rounded=0;strokeWidth=2;" vertex="1" parent="1">
          <mxGeometry x="559" y="120" width="60" height="30" as="geometry" />
        </mxCell>
        <mxCell id="T0Dxl9aZNpjFLh2CjU2h-94" value="$$2R$$" style="text;html=1;align=center;verticalAlign=middle;whiteSpace=wrap;rounded=0;strokeWidth=2;" vertex="1" parent="1">
          <mxGeometry x="559" y="68" width="60" height="30" as="geometry" />
        </mxCell>
        <mxCell id="T0Dxl9aZNpjFLh2CjU2h-95" value="$$2R$$" style="text;html=1;align=center;verticalAlign=middle;whiteSpace=wrap;rounded=0;strokeWidth=2;" vertex="1" parent="1">
          <mxGeometry x="559" y="7" width="60" height="30" as="geometry" />
        </mxCell>
      </root>
    </mxGraphModel>
  </diagram>
</mxfile>
